<?xml version="1.0" standalone="no"?>
<!DOCTYPE svg PUBLIC "-//W3C//DTD SVG 20010904//EN"
 "http://www.w3.org/TR/2001/REC-SVG-20010904/DTD/svg10.dtd">
<svg version="1.0" xmlns="http://www.w3.org/2000/svg"
 width="2048.000000pt" height="2048.000000pt" viewBox="0 0 2048.000000 2048.000000"
 preserveAspectRatio="xMidYMid meet">
<metadata>
Created by potrace 1.14, written by Peter Selinger 2001-2017
</metadata>
<g transform="translate(0.000000,2048.000000) scale(0.100000,-0.100000)"
fill="#000000" stroke="none">
<path d="M3009 20476 c-2 -3 -25 -7 -49 -10 -25 -3 -56 -8 -70 -11 -14 -3 -38
-8 -55 -11 -16 -3 -48 -9 -70 -14 -42 -9 -100 -21 -125 -25 -8 -1 -22 -5 -30
-8 -46 -18 -155 -45 -162 -41 -4 3 -8 1 -8 -4 0 -5 -15 -13 -32 -17 -18 -4
-38 -9 -45 -10 -7 -2 -26 -10 -43 -18 -16 -9 -30 -11 -30 -6 0 6 -7 3 -16 -5
-8 -9 -19 -16 -24 -16 -5 0 -21 -5 -37 -12 -15 -6 -32 -12 -38 -14 -12 -3 -92
-37 -152 -66 -23 -11 -44 -19 -45 -18 -2 1 -36 -17 -76 -39 -40 -22 -82 -43
-92 -46 -11 -4 -20 -11 -20 -16 0 -5 -3 -8 -7 -7 -5 1 -36 -14 -71 -35 -35
-20 -67 -37 -72 -37 -4 0 -10 -3 -12 -8 -1 -4 -25 -22 -53 -39 -66 -42 -110
-73 -145 -100 -15 -13 -32 -23 -37 -23 -5 0 -15 -9 -23 -20 -8 -11 -18 -20
-22 -20 -4 0 -18 -8 -30 -19 -138 -115 -176 -148 -196 -168 -13 -12 -27 -23
-33 -23 -6 0 -7 -4 -4 -10 3 -5 2 -10 -3 -10 -15 0 -181 -170 -282 -290 -12
-14 -30 -35 -41 -48 -10 -12 -19 -25 -19 -28 0 -3 -11 -17 -25 -32 -31 -33
-95 -119 -95 -127 0 -3 -5 -11 -10 -18 -36 -43 -48 -59 -65 -91 -11 -20 -23
-36 -27 -36 -5 0 -8 -5 -8 -10 0 -6 -12 -29 -27 -53 -15 -23 -26 -45 -25 -49
1 -5 -2 -8 -8 -8 -5 0 -10 -6 -10 -14 0 -8 -4 -16 -8 -18 -8 -3 -136 -259
-175 -348 -18 -40 -61 -152 -62 -160 0 -3 -4 -11 -8 -18 -5 -7 -11 -24 -13
-39 -3 -15 -9 -32 -13 -38 -5 -5 -12 -26 -17 -45 -10 -45 -9 -40 -22 -73 -7
-15 -14 -41 -17 -57 -3 -16 -10 -41 -15 -55 -5 -14 -9 -29 -8 -33 1 -4 -2 -14
-5 -22 -8 -19 -54 -253 -65 -323 -4 -29 -7 -257 -7 -507 0 -400 5 -534 20
-590 6 -20 15 -69 20 -105 6 -42 63 -275 74 -300 4 -11 18 -54 31 -95 21 -71
28 -90 49 -142 5 -13 24 -61 43 -108 18 -47 36 -86 41 -88 4 -2 7 -9 7 -16 0
-7 12 -37 27 -67 15 -30 27 -58 27 -62 1 -4 8 -12 16 -17 8 -5 11 -10 7 -10
-4 0 6 -24 23 -52 17 -29 35 -65 41 -80 6 -16 15 -28 20 -28 5 0 9 -7 9 -15 0
-9 5 -21 10 -28 6 -7 26 -37 45 -67 19 -30 38 -60 42 -65 4 -6 28 -39 53 -75
24 -36 48 -66 52 -68 4 -2 8 -10 8 -18 0 -8 5 -14 10 -14 6 0 10 -5 10 -10 0
-6 10 -21 23 -34 12 -12 33 -38 47 -56 34 -46 82 -99 211 -237 82 -86 161
-157 334 -300 11 -9 35 -27 54 -40 18 -13 30 -23 25 -23 -5 0 11 -12 36 -27
25 -15 47 -29 50 -33 3 -4 34 -25 70 -48 36 -23 70 -46 77 -52 7 -5 15 -10 19
-10 4 0 15 -6 23 -14 9 -7 41 -26 71 -42 30 -16 57 -31 60 -35 12 -12 291
-145 380 -180 30 -11 66 -26 80 -32 14 -5 30 -11 35 -12 6 -2 42 -13 80 -26
39 -13 72 -24 75 -24 3 -1 12 -5 21 -9 8 -4 29 -8 45 -9 16 -1 32 -5 35 -10 3
-4 34 -14 70 -22 35 -8 83 -19 107 -25 23 -5 59 -13 80 -16 20 -3 56 -10 80
-15 24 -5 62 -11 85 -14 110 -13 132 -17 146 -28 12 -9 13 -9 8 0 -6 9 2 11
27 8 151 -20 604 -20 623 -1 3 3 14 1 24 -5 11 -5 19 -6 19 -1 0 5 6 9 13 9
23 0 142 14 162 18 11 2 38 7 60 11 22 3 50 8 63 10 12 2 32 6 45 8 12 2 45 9
72 16 28 6 61 13 75 15 14 2 25 4 25 5 0 1 7 3 15 6 8 2 47 12 85 23 108 29
227 70 244 84 12 10 13 9 7 -1 -4 -7 9 -3 28 8 20 11 39 20 44 21 4 1 17 5 30
10 13 5 25 9 28 9 5 0 83 36 214 98 41 19 78 40 82 46 4 6 8 7 8 3 0 -5 12 0
28 11 15 10 42 25 60 33 17 8 32 17 32 21 0 5 6 8 13 8 7 0 31 13 53 30 21 16
44 30 50 30 6 0 23 11 38 25 14 13 26 22 26 19 0 -4 171 118 197 140 31 27 43
36 48 36 3 0 21 16 41 35 19 19 37 36 41 37 22 9 363 339 363 352 0 3 18 24
39 48 22 23 37 46 34 52 -3 5 -1 6 5 2 5 -3 19 9 31 26 18 29 31 46 81 105 5
7 10 17 10 23 0 5 5 10 10 10 6 0 10 5 10 10 0 6 11 23 24 37 13 14 30 37 37
52 8 14 28 46 45 72 60 87 196 340 247 459 8 19 24 56 36 82 11 26 21 54 21
62 0 8 5 18 10 21 6 3 10 15 10 26 0 10 5 19 12 19 6 0 9 3 6 6 -4 3 7 42 23
86 15 44 28 83 27 86 -1 4 2 14 5 22 11 27 39 125 42 147 2 11 6 30 10 42 6
20 15 61 20 91 1 8 5 23 9 32 4 9 5 21 2 27 -4 5 -2 12 4 16 6 4 8 10 6 14 -3
4 -1 23 4 42 5 19 12 56 14 83 3 26 8 67 12 90 3 22 7 66 9 96 2 30 5 55 5 55
8 0 12 382 5 500 -2 33 -4 60 -5 60 -1 0 -3 16 -5 35 -8 95 -16 164 -20 184
-3 11 -7 39 -10 61 -4 33 -16 98 -39 205 -2 8 -6 22 -9 30 -4 8 -8 29 -11 45
-2 17 -5 30 -6 30 -1 0 -3 11 -6 25 -2 14 -7 32 -11 40 -3 8 -8 24 -10 35 -3
18 -9 37 -29 90 -4 11 -9 29 -11 40 -2 11 -8 22 -13 23 -6 2 -8 8 -5 12 5 8
-44 138 -91 245 -10 22 -18 42 -19 45 -3 15 -40 86 -48 91 -5 3 -8 10 -8 15 1
18 -11 44 -20 44 -6 0 -8 4 -5 8 3 5 -5 24 -17 43 -11 19 -21 36 -22 39 0 3
-17 33 -38 68 -20 35 -37 67 -37 73 0 5 -4 9 -10 9 -5 0 -10 7 -10 15 0 9 -7
18 -15 21 -8 4 -12 10 -9 15 3 5 0 9 -5 9 -6 0 -11 7 -11 15 0 8 -3 15 -8 15
-4 0 -13 13 -20 30 -7 16 -27 44 -43 61 -16 17 -29 33 -29 36 0 3 -15 26 -32
51 -31 43 -47 64 -90 112 -10 11 -18 22 -18 25 0 2 -10 15 -22 28 -55 57 -173
190 -176 198 -2 5 -11 9 -19 9 -9 0 -14 3 -11 6 6 6 -8 21 -118 119 -37 33
-74 67 -83 75 -9 8 -37 31 -61 50 -77 60 -83 65 -102 83 -10 9 -18 14 -18 10
0 -5 -4 -3 -8 3 -4 5 -36 30 -72 55 -36 24 -69 47 -75 52 -30 22 -85 56 -85
51 0 -3 -7 1 -15 8 -36 33 -50 43 -52 38 -1 -3 -11 3 -23 12 -11 10 -20 16
-20 13 0 -3 -18 6 -39 19 -21 14 -61 35 -87 47 -27 13 -52 27 -55 32 -3 5 -10
9 -15 9 -5 0 -43 16 -84 35 -41 19 -104 46 -140 59 -36 13 -74 28 -85 33 -37
17 -60 25 -77 26 -10 1 -23 7 -31 13 -7 6 -24 13 -37 15 -14 2 -36 9 -50 14
-20 9 -79 25 -100 28 -3 0 -11 4 -17 8 -7 5 -13 6 -13 3 0 -3 -18 1 -40 9 -22
8 -40 12 -40 10 0 -3 -11 0 -25 5 -15 6 -49 14 -78 19 -29 5 -65 12 -82 15
-16 3 -46 9 -65 12 -19 4 -44 9 -55 12 -27 6 -980 14 -986 8z"/>
<path d="M2539 13185 c-2 -2 -22 -5 -44 -8 -47 -5 -64 -11 -125 -40 -48 -22
-184 -152 -175 -166 3 -5 -2 -12 -11 -15 -8 -3 -12 -10 -9 -16 3 -5 2 -10 -2
-10 -7 0 -56 -92 -59 -110 0 -3 -4 -12 -7 -20 -14 -34 -47 -139 -51 -166 -6
-28 -10 -52 -21 -104 -7 -37 -14 -79 -21 -135 -11 -86 -11 -90 -14 -90 -1 0
-3 -11 -5 -25 -4 -45 -16 -125 -20 -140 -2 -8 -6 -37 -10 -65 -5 -48 -9 -75
-20 -140 -21 -129 -23 -211 -8 -258 15 -44 34 -66 65 -73 66 -16 121 10 213
101 81 79 101 111 107 167 5 41 3 46 -11 39 -9 -5 -24 -18 -33 -28 -138 -146
-169 -171 -185 -150 -10 12 -9 72 1 137 3 19 8 55 11 80 3 24 8 56 11 70 3 14
7 41 10 60 2 19 7 51 10 70 3 19 7 51 10 70 3 19 7 46 10 60 5 24 12 78 18
130 2 14 4 25 5 25 1 0 4 14 6 30 9 71 15 112 20 135 3 14 8 45 11 69 3 25 7
47 9 51 2 3 6 25 10 50 4 25 10 49 13 55 4 5 8 21 10 35 5 35 49 120 75 145
52 49 98 55 188 24 33 -12 61 -19 63 -18 25 41 64 97 74 107 22 24 13 41 -29
52 -23 6 -43 9 -46 6 -3 -3 -13 -1 -23 4 -10 5 -19 8 -21 5z"/>
<path d="M8651 13043 c-1 -7 -6 -13 -12 -13 -6 0 -16 -6 -23 -12 -26 -25 -62
-54 -108 -87 -40 -29 -54 -44 -63 -71 -1 -3 -4 -12 -7 -20 -13 -32 -28 -83
-28 -93 0 -6 9 -2 20 8 11 10 20 14 20 10 0 -5 7 0 15 11 8 10 15 15 15 9 0
-7 3 -7 8 0 4 6 33 27 64 47 57 37 63 47 83 133 1 6 7 23 14 39 6 16 10 34 7
40 -3 7 -5 6 -5 -1z"/>
<path d="M575 12965 c-27 -7 -54 -11 -59 -8 -5 4 -6 1 -2 -5 3 -6 -4 -14 -16
-18 -37 -11 -133 -116 -158 -170 -37 -83 -46 -126 -45 -214 1 -103 14 -131 98
-221 20 -22 37 -45 37 -50 0 -6 3 -8 8 -6 4 3 17 -9 30 -26 12 -18 45 -63 72
-100 28 -37 50 -72 50 -77 0 -6 4 -10 9 -10 26 0 60 -177 40 -205 -4 -5 -8
-14 -9 -20 -10 -47 -47 -93 -96 -118 -46 -23 -150 -16 -205 14 -47 26 -69 42
-104 76 -21 20 -23 20 -37 4 -8 -9 -17 -25 -21 -34 -3 -9 -11 -17 -17 -17 -5
0 -10 -6 -10 -13 0 -7 -9 -23 -21 -36 -21 -22 -21 -23 -3 -39 16 -14 63 -40
84 -47 8 -3 43 -16 67 -25 22 -9 173 -7 209 3 29 7 84 33 118 54 39 24 119
107 137 141 8 15 17 29 21 32 4 3 10 17 12 30 2 14 5 25 6 25 13 0 22 190 10
214 -4 9 -18 40 -31 69 -12 28 -25 52 -29 52 -3 0 -13 12 -22 28 -9 15 -33 44
-52 65 -19 21 -51 59 -73 85 -21 25 -44 52 -52 59 -20 20 -54 73 -70 108 -26
57 -19 205 10 205 6 0 8 4 5 8 -8 13 54 69 89 82 30 11 87 14 115 6 46 -13 58
-21 84 -58 27 -37 31 -54 36 -151 0 -16 65 -3 65 13 1 8 4 31 8 50 3 19 9 53
12 75 2 22 7 54 10 72 6 31 4 33 -61 63 -100 47 -167 57 -249 35z"/>
<path d="M4898 12966 c-16 -8 -28 -13 -28 -10 0 2 -9 -5 -20 -16 -11 -11 -20
-24 -20 -30 0 -5 -6 -10 -12 -10 -23 0 -84 -123 -91 -183 -6 -48 -5 -56 8 -50
9 3 14 8 11 10 -8 8 76 101 116 127 25 17 26 16 45 -11 21 -30 41 -76 46 -108
2 -11 7 -27 10 -35 7 -18 56 -204 63 -240 3 -14 13 -54 23 -89 l18 -65 -75
-110 c-41 -61 -79 -114 -84 -117 -5 -3 -9 -10 -9 -15 0 -5 -9 -19 -19 -31 -11
-13 -17 -23 -12 -23 4 0 -1 -5 -10 -11 -10 -5 -18 -14 -18 -20 0 -5 -13 -23
-30 -39 -16 -16 -30 -33 -30 -37 0 -9 -74 -63 -87 -63 -5 0 -16 9 -26 20 -21
25 -29 25 -47 -1 -8 -12 -20 -27 -25 -33 -6 -6 -24 -29 -42 -51 l-31 -41 26
-34 c15 -19 34 -36 42 -38 8 -2 17 -8 18 -13 6 -15 71 -10 100 8 28 17 132
122 132 133 0 4 11 20 24 35 13 15 33 45 43 66 10 22 21 39 26 39 4 0 7 5 7
11 0 9 67 128 101 179 5 8 12 23 15 33 4 9 10 17 15 17 5 0 9 7 9 15 0 15 19
22 21 8 0 -5 3 -19 6 -33 2 -14 5 -29 7 -35 1 -5 4 -14 7 -20 3 -5 11 -37 18
-70 7 -33 17 -68 22 -77 5 -10 9 -23 9 -30 0 -22 53 -183 62 -186 4 -2 15 -18
23 -36 16 -32 96 -82 110 -68 3 4 12 7 18 8 7 0 20 2 29 2 20 2 108 83 108
100 0 7 4 12 10 12 15 0 38 62 45 122 l6 53 -29 -35 c-82 -97 -105 -114 -131
-100 -17 9 -58 71 -59 90 0 3 -5 17 -10 31 -6 14 -12 39 -15 56 -3 17 -11 41
-18 54 -7 13 -12 26 -11 29 3 8 -10 74 -16 85 -3 5 -7 16 -8 25 -1 8 -10 42
-19 75 -10 33 -17 67 -17 75 -1 8 -5 21 -11 28 -5 7 -7 15 -4 19 4 3 2 12 -3
19 -8 8 5 35 46 95 32 46 61 86 66 87 4 2 8 8 8 13 0 13 102 149 148 197 42
43 47 45 95 42 18 -1 36 6 48 19 11 12 17 21 13 21 -4 0 2 9 14 20 12 12 22
24 22 28 0 4 12 20 26 36 l27 28 -25 24 c-55 56 -141 31 -243 -70 -33 -32 -59
-61 -57 -63 2 -2 -6 -16 -18 -31 -37 -49 -86 -126 -105 -167 -11 -22 -22 -42
-26 -45 -3 -3 -19 -29 -35 -57 -28 -53 -43 -66 -45 -38 -1 8 -2 18 -3 23 -1 4
-8 34 -16 67 -18 81 -16 73 -33 137 -9 31 -20 65 -26 76 -6 11 -7 22 -4 26 3
3 0 6 -7 6 -7 0 -10 3 -7 6 7 7 -22 64 -38 76 -5 4 -6 8 -1 8 12 0 -66 70 -78
70 -6 0 -20 3 -31 5 -11 3 -32 -1 -47 -9z"/>
<path d="M2826 12619 c-26 -4 -55 -11 -65 -15 -9 -4 -22 -8 -30 -10 -8 -1 -17
-6 -20 -11 -3 -4 -26 -24 -51 -43 -25 -19 -51 -43 -59 -54 -8 -10 -22 -26 -32
-34 -10 -9 -16 -19 -13 -24 3 -4 1 -8 -5 -8 -11 0 -21 -17 -69 -116 -19 -38
-38 -77 -43 -87 -38 -71 -62 -333 -37 -409 36 -109 98 -189 156 -201 72 -15
185 12 239 56 36 30 123 117 116 117 -3 0 3 10 14 23 45 48 122 217 139 302
18 92 23 212 12 280 -9 50 -31 115 -40 115 -4 0 -8 6 -8 13 -1 21 -59 78 -96
93 -18 8 -34 11 -34 8 0 -4 -6 -2 -12 3 -8 5 -34 6 -62 2z m33 -140 c63 -69
73 -314 20 -499 -7 -25 -13 -47 -13 -50 -3 -20 -51 -120 -58 -120 -4 0 -8 -4
-8 -10 0 -16 -43 -61 -72 -76 -92 -48 -156 32 -163 203 -2 43 -4 83 -5 88 -1
6 -1 12 0 15 1 3 4 24 6 47 5 46 38 202 44 211 2 1 3 5 5 10 3 12 25 65 42 99
8 18 33 51 54 73 33 34 45 40 80 40 32 0 46 -6 68 -31z"/>
<path d="M3428 12625 c-2 -2 -18 -7 -36 -10 -36 -6 -72 -25 -72 -37 0 -5 -6
-8 -13 -8 -13 0 -122 -113 -140 -145 -4 -8 -10 -27 -12 -42 -1 -16 -4 -32 -5
-38 -7 -32 3 -34 28 -4 45 57 118 129 131 129 6 0 11 5 11 11 0 6 12 9 28 7
26 -3 27 -5 26 -58 -1 -30 -5 -75 -9 -100 -4 -25 -8 -56 -10 -70 -2 -14 -7
-41 -10 -60 -8 -47 -15 -98 -20 -140 -2 -19 -4 -35 -5 -35 -1 0 -3 -9 -4 -20
-2 -11 -6 -36 -9 -55 -3 -19 -8 -53 -12 -75 -3 -23 -7 -52 -10 -65 -8 -41 -24
-133 -29 -167 l-4 -32 71 5 c40 3 78 6 85 6 6 1 12 11 13 22 0 12 2 30 4 41 4
20 12 72 21 135 11 77 27 146 39 170 31 60 75 160 75 170 0 5 5 10 11 10 5 0
8 4 5 8 -3 5 4 19 15 30 11 12 18 22 15 22 -16 0 106 180 138 202 13 9 35 20
49 23 23 6 26 3 32 -27 5 -26 1 -103 -5 -103 -2 0 -8 -53 -14 -115 -3 -25 -5
-45 -6 -45 -3 0 -9 -41 -12 -72 -1 -18 -5 -33 -8 -33 -3 0 -6 -15 -7 -33 0
-17 -4 -50 -7 -72 -32 -202 -28 -292 15 -331 26 -23 116 -29 137 -8 7 8 19 14
25 14 16 0 104 84 146 137 18 23 34 55 37 70 2 15 7 39 10 53 4 19 -16 2 -82
-65 -48 -49 -90 -89 -93 -89 -3 1 -12 -1 -18 -3 -7 -3 -20 -2 -29 1 -13 5 -14
17 -9 72 8 85 17 151 31 218 4 23 14 95 19 136 1 14 5 39 8 55 15 73 22 146
22 230 0 72 -4 97 -19 122 -37 60 -107 71 -181 28 -45 -26 -130 -114 -140
-144 -3 -10 -13 -22 -21 -25 -8 -3 -12 -10 -9 -16 3 -6 -1 -13 -9 -16 -9 -3
-14 -10 -11 -14 2 -4 -4 -18 -15 -30 -11 -13 -20 -27 -20 -31 0 -9 -49 -119
-53 -119 -2 0 -1 16 1 35 3 22 8 33 16 28 8 -4 8 -3 0 6 -8 9 -9 25 -2 54 6
23 11 86 12 139 1 89 -1 98 -23 122 -22 23 -75 49 -83 41z"/>
<path d="M6356 12622 c-46 -6 -145 -78 -181 -133 -5 -9 -24 -38 -42 -65 -18
-27 -36 -53 -41 -59 -4 -5 -9 -13 -10 -17 -2 -4 -11 -28 -22 -54 -11 -25 -20
-50 -20 -55 0 -5 -5 -9 -11 -9 -6 0 -8 11 -5 28 3 15 8 45 11 67 2 22 7 50 9
62 3 11 8 43 12 70 5 26 9 51 10 56 1 4 2 16 3 28 1 13 5 18 14 13 9 -6 9 -5
0 8 -7 8 -10 18 -7 21 4 3 4 13 1 21 -5 13 -16 11 -72 -14 -36 -16 -65 -27
-65 -24 0 3 -10 -2 -22 -10 -12 -9 -30 -16 -40 -16 -10 0 -18 -5 -18 -12 0 -6
-3 -8 -7 -5 -3 4 -11 3 -17 -1 -6 -5 -32 -16 -57 -25 -25 -10 -46 -23 -46 -30
0 -6 -2 -16 -3 -22 -8 -31 1 -45 23 -40 13 4 32 8 43 10 10 2 19 4 19 5 0 6
35 6 44 0 17 -10 15 -107 -4 -225 -3 -16 -7 -46 -9 -65 -2 -19 -6 -48 -9 -65
-4 -16 -8 -46 -11 -65 -3 -19 -8 -53 -11 -75 -4 -22 -8 -53 -11 -70 -2 -16 -6
-41 -9 -55 -2 -14 -7 -45 -10 -70 -3 -25 -7 -56 -10 -70 -5 -25 -14 -85 -20
-130 -6 -44 -22 -125 -25 -125 -1 0 -3 -11 -6 -24 -9 -52 -66 -151 -101 -178
-44 -34 -90 -37 -166 -11 -32 11 -60 18 -61 17 -21 -26 -94 -144 -91 -147 14
-14 176 -20 225 -8 177 43 337 259 387 526 2 13 6 27 9 29 8 8 54 7 54 -2 0
-4 4 -6 8 -3 5 3 30 6 56 7 26 2 49 6 52 11 3 4 14 8 24 8 10 0 25 7 34 15 8
8 19 15 24 15 28 0 143 121 189 198 13 23 29 42 34 42 5 0 8 3 7 8 -2 11 13
45 30 65 8 9 12 17 7 17 -4 0 0 11 8 24 9 13 18 35 21 48 3 12 12 42 20 65 22
60 28 103 32 223 4 121 -11 189 -52 231 -28 29 -75 46 -118 41z m-15 -178 c7
-9 14 -26 16 -38 1 -11 4 -36 6 -53 3 -20 0 -33 -7 -33 -7 0 -7 -3 -1 -8 10
-7 14 -72 5 -72 -4 0 -7 -17 -8 -38 -2 -22 -14 -79 -28 -128 -14 -49 -25 -95
-26 -101 -1 -7 -5 -13 -10 -13 -5 0 -7 -4 -4 -9 3 -5 -2 -26 -11 -47 -9 -22
-16 -42 -15 -46 1 -5 -2 -8 -8 -8 -5 0 -10 -7 -10 -15 0 -7 -8 -19 -17 -24
-10 -6 -14 -11 -10 -11 11 0 -26 -38 -37 -38 -5 0 -12 -6 -17 -14 -11 -17
-143 -16 -164 2 -8 7 -15 9 -15 5 0 -4 -7 -2 -15 5 -10 9 -13 23 -10 49 3 20
8 52 11 71 6 43 12 74 14 78 2 1 3 5 4 10 1 4 7 16 13 27 6 11 12 23 13 27 10
40 13 48 20 48 4 0 13 18 20 40 7 22 16 40 20 40 3 0 12 16 20 35 8 19 18 35
22 35 5 0 6 5 3 10 -3 6 -2 10 3 10 5 0 14 12 21 26 22 49 116 163 146 178 38
19 40 19 56 0z m-311 -228 c0 -3 -4 -8 -10 -11 -5 -3 -10 -1 -10 4 0 6 5 11
10 11 6 0 10 -2 10 -4z"/>
<path d="M7077 12624 c-2 -3 -14 -7 -26 -9 -40 -8 -65 -17 -79 -31 -7 -8 -17
-12 -20 -10 -9 5 -146 -137 -150 -155 -2 -8 -9 -18 -15 -24 -14 -11 -69 -120
-67 -131 1 -4 -3 -10 -8 -13 -14 -8 -50 -135 -60 -208 -29 -209 34 -392 148
-432 46 -16 142 -7 187 16 23 12 44 19 47 16 3 -4 6 -1 6 5 0 7 4 12 10 12 12
0 106 66 139 97 13 13 27 23 31 23 9 0 20 32 26 78 4 31 3 32 -16 22 -11 -6
-20 -16 -20 -22 0 -6 -3 -9 -6 -5 -4 3 -12 1 -20 -6 -7 -7 -20 -18 -28 -24
-18 -16 -133 -74 -149 -77 -7 -1 -16 -4 -22 -7 -5 -3 -20 -4 -32 -3 -13 1 -32
2 -43 3 -24 1 -58 36 -76 77 -20 48 -29 174 -12 175 142 11 250 69 352 190 10
12 19 27 20 33 1 6 9 22 18 36 23 34 30 71 33 163 3 85 -13 133 -57 174 -21
20 -101 46 -111 37z m-1 -145 c19 -21 29 -155 13 -165 -5 -3 -7 -9 -4 -14 3
-5 -1 -23 -10 -40 -8 -16 -15 -32 -15 -35 0 -8 -52 -59 -90 -87 -35 -26 -137
-61 -151 -52 -5 2 -6 10 -4 17 2 7 6 30 9 52 9 73 49 176 100 256 50 79 115
108 152 68z"/>
<path d="M8060 12620 c-19 -4 -48 -14 -65 -22 -37 -20 -105 -84 -97 -92 3 -3
1 -6 -5 -6 -19 0 -131 -178 -152 -243 -16 -48 -36 -61 -26 -17 21 97 28 271
13 308 -23 53 -41 68 -86 71 -62 4 -120 -28 -197 -111 -72 -77 -90 -106 -98
-155 -3 -17 -8 -37 -12 -42 -11 -19 5 -12 31 14 14 14 22 25 19 25 -4 0 24 29
60 65 70 68 111 88 126 64 8 -13 4 -142 -6 -199 -4 -24 -12 -75 -19 -115 -2
-11 -7 -44 -11 -74 -3 -30 -9 -63 -11 -75 -2 -12 -6 -39 -9 -61 -3 -22 -7 -51
-10 -65 -5 -25 -16 -94 -19 -120 -1 -8 -5 -31 -9 -50 -4 -19 -9 -47 -11 -62
-3 -15 -7 -32 -11 -38 -4 -6 23 -8 76 -5 87 4 98 10 100 55 0 14 3 34 5 45 6
25 9 45 19 115 14 103 34 180 47 180 4 0 8 8 8 18 0 10 7 27 15 38 8 10 15 27
15 36 0 9 3 18 8 20 4 2 21 31 37 65 17 35 33 63 38 63 4 0 7 5 7 11 0 14 57
94 94 131 43 43 71 51 112 32 31 -15 35 -15 49 0 9 9 14 16 11 16 -3 0 3 15
14 33 38 63 60 106 60 118 0 7 -3 10 -6 6 -3 -3 -20 2 -37 12 -22 12 -43 15
-67 11z"/>
<path d="M9705 12623 c-50 -10 -105 -42 -162 -98 -35 -33 -63 -66 -63 -72 0
-7 -5 -13 -10 -13 -14 0 -31 -46 -34 -93 l-3 -37 37 37 c21 21 36 40 34 42 -8
8 113 101 133 101 30 0 35 -25 23 -106 -6 -38 -12 -82 -14 -99 -2 -16 -7 -47
-10 -67 -3 -21 -8 -55 -11 -75 -6 -40 -12 -79 -20 -128 -3 -16 -8 -49 -11 -71
-2 -23 -7 -53 -9 -65 -3 -13 -7 -35 -9 -49 -11 -68 -19 -117 -22 -135 -1 -11
-6 -34 -9 -52 l-7 -32 58 4 c33 1 70 3 84 4 22 1 26 6 28 38 2 20 5 39 7 43 2
3 7 29 10 56 4 27 8 60 11 74 2 14 7 45 10 70 3 25 11 48 16 51 5 3 8 8 7 10
-2 2 5 24 15 49 10 25 18 46 18 47 0 2 76 150 110 213 25 48 39 69 68 104 93
111 141 115 135 10 -2 -28 -6 -64 -9 -80 -3 -16 -9 -49 -12 -74 -2 -25 -7 -58
-10 -75 -5 -30 -7 -44 -18 -120 -4 -22 -9 -56 -12 -75 -3 -19 -7 -54 -8 -76
-2 -23 -6 -46 -9 -50 -9 -16 -5 -145 6 -175 6 -16 19 -32 29 -35 10 -3 18 -10
18 -16 0 -6 3 -8 6 -5 4 3 15 2 25 -4 13 -7 19 -6 19 1 0 6 5 8 10 5 15 -9 71
12 105 40 17 13 40 32 52 42 13 10 23 24 23 31 0 6 4 12 9 12 23 0 70 78 77
126 3 27 9 54 12 59 3 6 -2 4 -11 -4 -10 -8 -16 -16 -13 -18 8 -8 -145 -153
-168 -159 -42 -10 -49 2 -43 82 4 41 8 78 10 82 3 4 8 32 11 63 4 31 9 67 12
80 2 13 6 46 9 72 2 26 6 51 9 55 2 4 7 30 10 57 3 28 8 61 11 75 11 52 13
180 4 222 -28 122 -154 132 -261 21 -61 -63 -68 -71 -68 -82 0 -6 -4 -11 -10
-11 -5 0 -10 -7 -10 -15 0 -8 -4 -15 -10 -15 -5 0 -10 -7 -10 -15 0 -8 -3 -15
-8 -15 -4 0 -13 -15 -21 -32 -7 -18 -21 -44 -29 -58 -9 -14 -17 -29 -18 -35
-1 -5 -9 -26 -18 -45 l-16 -35 5 45 c3 25 8 52 10 60 16 60 24 201 14 248 -6
28 -59 98 -59 78 0 -4 -8 -3 -17 2 -10 5 -27 7 -38 5z"/>
<path d="M10914 12619 c-11 -4 -31 -10 -45 -13 -46 -10 -189 -119 -189 -144 0
-5 -7 -12 -15 -16 -8 -3 -15 -12 -15 -21 0 -8 -4 -15 -9 -15 -5 0 -16 -12 -24
-27 -8 -16 -28 -54 -45 -86 -17 -31 -34 -73 -38 -92 -3 -20 -10 -38 -15 -41
-5 -3 -7 -10 -4 -15 4 -5 3 -9 -2 -9 -4 0 -9 -12 -10 -27 -1 -16 -4 -43 -8
-61 -10 -53 -11 -162 -2 -217 13 -82 83 -206 110 -198 4 2 7 -1 7 -6 0 -22
153 -38 178 -18 6 5 12 7 12 3 0 -4 11 1 25 10 14 9 25 14 25 10 0 -3 9 2 20
12 12 9 24 17 29 17 12 0 81 49 81 58 0 4 7 7 15 7 7 0 18 6 22 13 4 7 21 23
37 35 23 17 29 31 32 67 2 41 1 44 -16 35 -10 -5 -20 -13 -22 -17 -5 -12 -66
-53 -78 -53 -5 0 -10 -4 -10 -8 0 -6 -22 -18 -70 -37 -3 -1 -18 -7 -34 -14
-52 -21 -113 -16 -142 13 -40 41 -47 68 -49 192 -3 124 11 227 41 324 10 30
17 58 16 63 -1 4 2 7 7 7 5 0 14 14 21 31 17 40 68 97 103 115 15 8 49 14 75
13 37 -2 53 -9 73 -31 25 -25 27 -34 23 -93 l-4 -65 30 0 c17 0 33 6 35 13 5
15 21 99 29 159 1 10 5 21 9 24 11 11 8 64 -3 64 -21 0 -25 2 -40 15 -23 21
-133 36 -166 24z"/>
<path d="M11680 12620 c-59 -10 -132 -51 -180 -100 -57 -58 -106 -121 -102
-132 1 -4 -2 -8 -7 -8 -8 0 -64 -102 -66 -120 0 -3 -3 -10 -7 -16 -13 -21 -42
-117 -54 -182 -17 -90 -5 -274 19 -298 4 -4 7 -16 7 -26 0 -10 5 -18 10 -18 6
0 10 -7 10 -15 0 -19 57 -74 90 -87 14 -6 42 -12 62 -13 20 -2 42 -6 47 -10 6
-3 11 -2 11 2 0 5 9 9 19 10 48 4 155 64 251 142 30 25 56 45 56 45 1 1 5 23
8 50 l7 49 -33 -25 c-18 -13 -49 -35 -68 -49 -19 -13 -37 -27 -38 -32 -2 -4
-7 -5 -12 -2 -5 3 -15 -2 -24 -10 -8 -8 -19 -15 -23 -14 -4 1 -21 -3 -37 -10
-119 -49 -185 9 -202 175 -7 62 -6 64 17 65 24 1 40 4 49 8 3 2 14 4 25 6 50
9 104 31 127 52 10 9 18 13 18 9 0 -7 59 43 100 85 28 29 78 116 83 145 1 10
6 24 9 30 4 6 6 49 5 95 -3 66 -8 93 -26 126 -32 57 -89 84 -151 73z m5 -133
c0 -1 5 -12 12 -23 17 -30 9 -150 -12 -203 -17 -42 -83 -121 -100 -121 -5 0
-16 -6 -24 -13 -22 -19 -105 -44 -122 -38 -8 3 -14 12 -13 19 1 6 2 24 3 38 0
14 4 23 9 21 4 -3 8 13 9 34 0 22 7 46 13 54 7 8 10 15 6 15 -3 0 3 17 14 37
11 21 20 43 20 50 0 7 4 13 10 13 5 0 12 11 16 25 3 14 10 25 15 25 5 0 9 5 9
10 0 14 37 49 63 60 17 7 72 5 72 -3z"/>
<path d="M8537 12609 c-9 -6 -17 -6 -17 -2 0 4 -4 3 -8 -2 -4 -6 -34 -21 -67
-34 -33 -13 -80 -32 -105 -43 -25 -10 -56 -24 -70 -30 -14 -6 -31 -13 -39 -17
-14 -7 -24 -68 -12 -75 4 -3 33 2 64 9 l58 13 10 -26 c9 -24 6 -104 -6 -182
-2 -14 -7 -43 -10 -65 -8 -59 -10 -69 -17 -80 -4 -6 -3 -17 2 -25 5 -8 5 -19
0 -25 -4 -5 -11 -35 -15 -65 -3 -30 -8 -62 -11 -71 -11 -40 -13 -168 -2 -210
8 -33 19 -51 38 -63 33 -19 102 -16 145 7 34 17 135 113 135 127 0 6 7 10 15
10 8 0 14 3 13 8 -1 4 6 21 15 39 9 18 17 49 17 69 l0 38 -27 -34 c-49 -61
-124 -131 -151 -141 -47 -18 -55 -6 -48 72 4 38 9 80 12 92 2 12 6 43 9 68 3
25 8 56 11 70 3 13 7 38 9 54 1 17 5 44 9 60 3 17 8 50 11 75 6 49 13 85 15
85 1 0 3 16 5 35 2 19 6 49 9 65 14 84 21 119 31 167 7 30 -3 40 -28 27z"/>
<path d="M9085 12597 c-63 -30 -150 -113 -201 -192 -22 -33 -42 -62 -47 -63
-4 -2 -5 -8 -1 -13 3 -5 0 -9 -5 -9 -6 0 -10 -3 -9 -7 1 -5 -3 -17 -9 -28 -19
-35 -63 -174 -70 -223 -7 -53 -8 -192 -1 -237 2 -16 14 -52 26 -79 12 -27 22
-50 22 -53 0 -2 14 -17 30 -33 28 -27 100 -66 100 -54 0 3 9 0 20 -6 12 -6 20
-7 20 -1 0 6 11 6 30 1 19 -5 28 -5 25 1 -4 5 2 9 12 9 43 1 193 91 266 160
31 29 39 45 42 78 2 23 2 42 1 42 -3 0 -28 -20 -63 -50 -7 -6 -13 -8 -13 -5 0
3 -9 -4 -20 -15 -11 -11 -27 -20 -35 -20 -8 0 -15 -4 -15 -9 0 -8 -20 -18 -50
-26 -3 -1 -18 -7 -34 -14 -43 -17 -113 -17 -142 2 -12 7 -45 71 -51 97 -10 42
-15 140 -7 141 5 1 20 2 34 3 48 5 130 28 130 37 0 5 3 8 8 7 13 -3 52 13 52
22 0 5 8 11 19 15 47 15 161 156 161 199 0 9 4 16 8 16 5 0 9 6 10 13 18 155
9 214 -42 273 -30 34 -38 38 -92 41 -47 3 -69 -1 -109 -20z m82 -124 c48 -70
17 -217 -62 -299 -42 -44 -79 -62 -182 -89 -24 -6 -24 -4 -6 85 4 19 8 40 8
45 1 6 7 23 13 38 7 16 12 32 12 35 0 4 14 34 31 67 32 63 42 75 101 131 24
22 66 15 85 -13z"/>
<path d="M1383 12589 c-34 -12 -71 -30 -82 -41 -12 -10 -21 -16 -21 -13 0 5
-46 -33 -74 -61 -33 -33 -66 -75 -66 -84 0 -5 -5 -10 -12 -10 -6 0 -8 -3 -5
-6 4 -4 -5 -20 -18 -36 -14 -16 -25 -36 -25 -44 0 -8 -4 -14 -10 -14 -5 0 -10
-9 -10 -19 0 -11 -7 -27 -16 -35 -8 -9 -12 -16 -8 -16 3 0 2 -6 -3 -12 -15
-19 -42 -106 -35 -112 3 -3 1 -6 -5 -6 -5 0 -10 -6 -10 -12 -1 -7 -4 -30 -8
-52 -4 -21 -8 -50 -10 -65 -2 -14 -4 -26 -5 -26 -4 0 -5 -121 -1 -130 3 -5 6
-25 8 -45 7 -70 57 -139 105 -144 3 -1 9 -4 13 -7 11 -12 89 13 130 42 36 24
84 73 110 111 34 51 45 68 70 113 16 28 28 51 27 53 -1 1 5 17 15 35 9 17 18
38 19 46 2 7 7 18 13 24 6 6 7 -4 1 -29 -9 -41 -21 -112 -25 -154 -2 -14 -4
-25 -5 -25 -6 0 -4 -98 3 -102 4 -2 5 -9 2 -14 -18 -27 58 -111 85 -94 5 3 11
1 15 -5 17 -27 165 68 216 138 13 18 29 39 35 45 20 23 31 52 33 92 l2 40 -38
-45 c-43 -50 -90 -97 -124 -122 -24 -19 -75 -25 -64 -9 3 5 1 12 -3 15 -5 3
-8 16 -6 28 2 13 6 41 9 63 11 85 20 145 30 200 3 17 8 48 11 70 3 22 7 51 9
65 2 14 7 48 10 75 6 51 10 71 20 115 3 14 7 39 10 55 5 36 15 101 20 126 2
11 7 24 10 29 12 19 -39 28 -160 29 -97 0 -132 -3 -182 -20z m87 -110 c70 -32
71 -33 65 -54 -3 -11 -8 -38 -11 -60 -9 -68 -12 -90 -14 -90 -1 0 -3 -7 -5
-16 -4 -23 -102 -221 -128 -261 -12 -18 -28 -45 -36 -60 -8 -16 -18 -28 -23
-28 -4 0 -8 -6 -8 -13 0 -7 -13 -26 -30 -42 -16 -15 -27 -31 -25 -35 7 -12
-75 -58 -95 -53 -22 6 -33 49 -33 128 0 90 19 223 35 243 6 6 7 12 2 12 -5 0
-2 5 6 10 12 8 12 10 1 10 -10 0 -10 5 3 25 9 14 15 25 12 25 -5 0 20 86 37
123 6 15 16 27 20 27 5 0 6 4 3 9 -3 5 7 23 23 40 16 17 26 31 23 32 -4 0 11
9 33 20 39 19 113 23 145 8z"/>
</g>
</svg>
